<svg width="49" height="49" viewBox="0 0 49 49" fill="none" xmlns="http://www.w3.org/2000/svg">
<rect y="1" width="48" height="48" rx="24" fill="#8257E5"/>
<path d="M25.7499 40.5H9.94369C9.7534 40.5025 9.56453 40.4669 9.38822 40.3952C9.21192 40.3236 9.05176 40.2173 8.91719 40.0828C8.78262 39.9482 8.67637 39.788 8.60471 39.6117C8.53304 39.4354 8.49742 39.2465 8.49994 39.0563V23.25C8.49994 18.675 10.3173 14.2874 13.5523 11.0524C16.7874 7.81741 21.175 6 25.7499 6C28.0152 6 30.2584 6.44618 32.3512 7.31308C34.4441 8.17997 36.3457 9.4506 37.9475 11.0524C39.5493 12.6542 40.82 14.5558 41.6869 16.6487C42.5538 18.7416 42.9999 20.9847 42.9999 23.25C42.9999 25.5153 42.5538 27.7584 41.6869 29.8513C40.82 31.9442 39.5493 33.8458 37.9475 35.4476C36.3457 37.0494 34.4441 38.32 32.3512 39.1869C30.2584 40.0538 28.0152 40.5 25.7499 40.5Z" stroke="white" stroke-width="1.5" stroke-linecap="round" stroke-linejoin="round"/>
<path d="M27.9531 24C27.9531 25.2168 26.9668 26.2031 25.75 26.2031C24.5332 26.2031 23.5469 25.2168 23.5469 24C23.5469 22.7832 24.5332 21.7969 25.75 21.7969C26.9668 21.7969 27.9531 22.7832 27.9531 24Z" fill="white" stroke="white" stroke-width="0.09375"/>
<path d="M18.9531 24C18.9531 25.2168 17.9668 26.2031 16.75 26.2031C15.5332 26.2031 14.5469 25.2168 14.5469 24C14.5469 22.7832 15.5332 21.7969 16.75 21.7969C17.9668 21.7969 18.9531 22.7832 18.9531 24Z" fill="white" stroke="white" stroke-width="0.09375"/>
<path d="M36.9531 24C36.9531 25.2168 35.9668 26.2031 34.75 26.2031C33.5332 26.2031 32.5469 25.2168 32.5469 24C32.5469 22.7832 33.5332 21.7969 34.75 21.7969C35.9668 21.7969 36.9531 22.7832 36.9531 24Z" fill="white" stroke="white" stroke-width="0.09375"/>
</svg>
